<?xml version="1.0" encoding="UTF-8"?>
<svg width="375px" height="667px" viewBox="0 0 375 667" version="1.1" xmlns="http://www.w3.org/2000/svg" xmlns:xlink="http://www.w3.org/1999/xlink" style="background: #323232;">
    <!-- Generator: Sketch 43.2 (39069) - http://www.bohemiancoding.com/sketch -->
    <title>iPhone 7</title>
    <desc>Created with Sketch.</desc>
    <defs>
        <text id="text-1" font-family="Impact" font-size="144" font-style="condensed" font-weight="700" fill="#7ED321">
            <tspan x="52.171875" y="230">4.4M</tspan>
        </text>
        <filter x="-4.0%" y="-4.0%" width="108.0%" height="112.6%" filterUnits="objectBoundingBox" id="filter-2">
            <feOffset dx="0" dy="2" in="SourceAlpha" result="shadowOffsetOuter1"></feOffset>
            <feGaussianBlur stdDeviation="2" in="shadowOffsetOuter1" result="shadowBlurOuter1"></feGaussianBlur>
            <feColorMatrix values="0 0 0 0 0   0 0 0 0 0   0 0 0 0 0  0 0 0 0.5 0" type="matrix" in="shadowBlurOuter1" result="shadowMatrixOuter1"></feColorMatrix>
            <feOffset dx="0" dy="2" in="SourceAlpha" result="shadowOffsetOuter2"></feOffset>
            <feGaussianBlur stdDeviation="2" in="shadowOffsetOuter2" result="shadowBlurOuter2"></feGaussianBlur>
            <feColorMatrix values="0 0 0 0 0   0 0 0 0 0   0 0 0 0 0  0 0 0 0.5 0" type="matrix" in="shadowBlurOuter2" result="shadowMatrixOuter2"></feColorMatrix>
            <feMerge>
                <feMergeNode in="shadowMatrixOuter1"></feMergeNode>
                <feMergeNode in="shadowMatrixOuter2"></feMergeNode>
            </feMerge>
        </filter>
        <text id="text-3" font-family="Impact" font-size="48" font-style="condensed" font-weight="700" fill="#FFFFFF">
            <tspan x="97.4765625" y="75">BTC / CLP</tspan>
        </text>
        <filter x="-3.9%" y="-8.6%" width="107.7%" height="124.1%" filterUnits="objectBoundingBox" id="filter-4">
            <feOffset dx="0" dy="2" in="SourceAlpha" result="shadowOffsetOuter1"></feOffset>
            <feGaussianBlur stdDeviation="2" in="shadowOffsetOuter1" result="shadowBlurOuter1"></feGaussianBlur>
            <feColorMatrix values="0 0 0 0 0   0 0 0 0 0   0 0 0 0 0  0 0 0 0.5 0" type="matrix" in="shadowBlurOuter1"></feColorMatrix>
        </filter>
        <text id="text-5" font-family="Impact" font-size="48" font-style="condensed" font-weight="700" fill="#6CCC02">
            <tspan x="33" y="395"># buy :</tspan>
        </text>
        <filter x="-5.4%" y="-8.6%" width="110.9%" height="124.1%" filterUnits="objectBoundingBox" id="filter-6">
            <feOffset dx="0" dy="2" in="SourceAlpha" result="shadowOffsetOuter1"></feOffset>
            <feGaussianBlur stdDeviation="2" in="shadowOffsetOuter1" result="shadowBlurOuter1"></feGaussianBlur>
            <feColorMatrix values="0 0 0 0 0   0 0 0 0 0   0 0 0 0 0  0 0 0 0.5 0" type="matrix" in="shadowBlurOuter1"></feColorMatrix>
        </filter>
        <text id="text-7" font-family="Impact" font-size="48" font-style="condensed" font-weight="700" fill="#6CCC02">
            <tspan x="281.71875" y="395">230</tspan>
        </text>
        <filter x="-9.2%" y="-8.6%" width="118.4%" height="124.1%" filterUnits="objectBoundingBox" id="filter-8">
            <feOffset dx="0" dy="2" in="SourceAlpha" result="shadowOffsetOuter1"></feOffset>
            <feGaussianBlur stdDeviation="2" in="shadowOffsetOuter1" result="shadowBlurOuter1"></feGaussianBlur>
            <feColorMatrix values="0 0 0 0 0   0 0 0 0 0   0 0 0 0 0  0 0 0 0.5 0" type="matrix" in="shadowBlurOuter1"></feColorMatrix>
        </filter>
        <text id="text-9" font-family="Impact" font-size="48" font-style="condensed" font-weight="700" fill="#D0011B">
            <tspan x="33" y="481"># sell :</tspan>
        </text>
        <filter x="-5.3%" y="-8.6%" width="110.7%" height="124.1%" filterUnits="objectBoundingBox" id="filter-10">
            <feOffset dx="0" dy="2" in="SourceAlpha" result="shadowOffsetOuter1"></feOffset>
            <feGaussianBlur stdDeviation="2" in="shadowOffsetOuter1" result="shadowBlurOuter1"></feGaussianBlur>
            <feColorMatrix values="0 0 0 0 0   0 0 0 0 0   0 0 0 0 0  0 0 0 0.5 0" type="matrix" in="shadowBlurOuter1"></feColorMatrix>
        </filter>
        <text id="text-11" font-family="Impact" font-size="48" font-style="condensed" font-weight="700" fill="#D0011B">
            <tspan x="289.007812" y="481">140</tspan>
        </text>
        <filter x="-10.3%" y="-8.6%" width="120.6%" height="124.1%" filterUnits="objectBoundingBox" id="filter-12">
            <feOffset dx="0" dy="2" in="SourceAlpha" result="shadowOffsetOuter1"></feOffset>
            <feGaussianBlur stdDeviation="2" in="shadowOffsetOuter1" result="shadowBlurOuter1"></feGaussianBlur>
            <feColorMatrix values="0 0 0 0 0   0 0 0 0 0   0 0 0 0 0  0 0 0 0.5 0" type="matrix" in="shadowBlurOuter1"></feColorMatrix>
        </filter>
        <text id="text-13" font-family="PingFangSC-Regular, PingFang SC" font-size="48" font-weight="normal" fill="#7ED321">
            <tspan x="111.585938" y="301">▲</tspan>
            <tspan x="159.585938" y="301" font-family="Impact" font-style="condensed" font-weight="700">0.4%</tspan>
        </text>
        <filter x="-5.0%" y="-7.5%" width="110.0%" height="120.9%" filterUnits="objectBoundingBox" id="filter-14">
            <feOffset dx="0" dy="2" in="SourceAlpha" result="shadowOffsetOuter1"></feOffset>
            <feGaussianBlur stdDeviation="2" in="shadowOffsetOuter1" result="shadowBlurOuter1"></feGaussianBlur>
            <feColorMatrix values="0 0 0 0 0   0 0 0 0 0   0 0 0 0 0  0 0 0 0.5 0" type="matrix" in="shadowBlurOuter1"></feColorMatrix>
        </filter>
        <linearGradient x1="-22.3171459%" y1="35.6556663%" x2="119.204897%" y2="59.2777883%" id="linearGradient-15">
            <stop stop-color="#257CAB" offset="0%"></stop>
            <stop stop-color="#2AB2B9" offset="61.3854812%"></stop>
            <stop stop-color="#2DBA99" offset="100%"></stop>
        </linearGradient>
    </defs>
    <g id="Page1" stroke="none" stroke-width="1" fill="none" fill-rule="evenodd">
        <g id="iPhone7">
            <g id="_44M" fill-opacity="1" fill="#7ED321">
                <use filter="url(#filter-2)" xlink:href="#text-1"></use>
                <use xlink:href="#text-1"></use>
            </g>
            <path d="M0.5,328.5 L376.5,328.5" id="Line" stroke="#979797" stroke-linecap="square"></path>
            <g id="StatusBarWhite100" fill="#FFFFFF">
                <g id="PinRight" stroke-width="1" fill-rule="evenodd" transform="translate(309.000000, 3.000000)">
                    <path d="M37.4937128,2.5 L57.0062872,2.5 C57.8266197,2.5 58.5,3.17394722 58.5,4.00530324 L58.5,10.4946968 C58.5,11.3319784 57.831242,12 57.0062872,12 L37.4937128,12 C36.6733803,12 36,11.3260528 36,10.4946968 L36,4.00530324 C36,3.16802155 36.668758,2.5 37.4937128,2.5 Z M59,5.5 L59.75,5.5 C60.1671014,5.5 60.5,5.83232111 60.5,6.24225998 L60.5,8.25774002 C60.5,8.66440529 60.1642136,9 59.75,9 L59,9 L59,5.5 Z M37.5081524,3 C36.9513652,3 36.5,3.45699692 36.5,4.00844055 L36.5,10.4915594 C36.5,11.0485058 36.9490581,11.5 37.5081524,11.5 L56.9918476,11.5 C57.5486348,11.5 58,11.0430031 58,10.4915594 L58,4.00844055 C58,3.45149422 57.5509419,3 56.9918476,3 L37.5081524,3 Z M37.5067444,3.5 L56.9932556,3.5 C57.2697754,3.5 57.5,3.72031886 57.5,3.99209595 L57.5,10.5079041 C57.5,10.783628 57.2731228,11 56.9932556,11 L37.5067444,11 C37.2302246,11 37,10.7796811 37,10.5079041 L37,3.99209595 C37,3.71637201 37.2268772,3.5 37.5067444,3.5 Z" id="Battery"></path>
                    <text id="_100" font-family=".AppleSystemUIFont" font-size="12" font-weight="normal">
                        <tspan x="2.85351562" y="12.5">100%</tspan>
                    </text>
                </g>
                <text id="_941AM" font-family=".AppleSystemUIFont" font-size="12" font-weight="normal">
                    <tspan x="164.255859" y="15.5">9:41 AM</tspan>
                </text>
                <g id="PinLeft" stroke-width="1" fill-rule="evenodd" transform="translate(6.000000, 3.000000)">
                    <path d="M90.1444208,9.43850432 L88.0225391,11.5 L85.8601652,9.40531769 C86.3778594,8.83143413 87.1390073,8.46891192 87.987563,8.46891192 C88.8523616,8.46891192 89.626374,8.84544555 90.1444208,9.43850432 Z M92.3234964,7.32144245 L92.3234964,7.32144245 L91.2346215,8.37932931 C90.4356305,7.51823504 89.2768836,6.97668394 87.987563,6.97668394 C86.713648,6.97668394 85.567205,7.5053708 84.7692987,8.34859996 L83.6792698,7.29269359 C84.7566264,6.17975893 86.2882723,5.48445596 87.987563,5.48445596 C89.7014387,5.48445596 91.2447794,6.19174563 92.3234964,7.32144245 Z M94.5,5.20687933 L93.4118698,6.26404272 C92.0538809,4.86552609 90.1260026,3.99222798 87.987563,3.99222798 C85.8628921,3.99222798 83.9460798,4.85431655 82.5895579,6.23709441 L81.5,5.18164431 C83.1355496,3.52895605 85.4375103,2.5 87.987563,2.5 C90.5505699,2.5 92.8629578,3.53943672 94.5,5.20687933 Z" id="WiFi"></path>
                    <text id="Carrier" font-family=".AppleSystemUIFont" font-size="12" font-weight="normal">
                        <tspan x="38" y="12.5">Sketch</tspan>
                    </text>
                    <path d="M3.25,10 C1.73121694,10 0.5,8.76878306 0.5,7.25 C0.5,5.73121694 1.73121694,4.5 3.25,4.5 C4.76878306,4.5 6,5.73121694 6,7.25 C6,8.76878306 4.76878306,10 3.25,10 Z M10.25,10 C8.73121694,10 7.5,8.76878306 7.5,7.25 C7.5,5.73121694 8.73121694,4.5 10.25,4.5 C11.7687831,4.5 13,5.73121694 13,7.25 C13,8.76878306 11.7687831,10 10.25,10 Z M17.25,10 C15.7312169,10 14.5,8.76878306 14.5,7.25 C14.5,5.73121694 15.7312169,4.5 17.25,4.5 C18.7687831,4.5 20,5.73121694 20,7.25 C20,8.76878306 18.7687831,10 17.25,10 Z M24.25,10 C22.7312169,10 21.5,8.76878306 21.5,7.25 C21.5,5.73121694 22.7312169,4.5 24.25,4.5 C25.7687831,4.5 27,5.73121694 27,7.25 C27,8.76878306 25.7687831,10 24.25,10 Z M31.25,10 C29.7312169,10 28.5,8.76878306 28.5,7.25 C28.5,5.73121694 29.7312169,4.5 31.25,4.5 C32.7687831,4.5 34,5.73121694 34,7.25 C34,8.76878306 32.7687831,10 31.25,10 Z" id="MobileSignal"></path>
                </g>
            </g>
            <g id="ElementsPageControlWhite" transform="translate(168.000000, 632.000000)" fill="#FFFFFF">
                <circle id="Active" cx="3.5" cy="3.5" r="3.5"></circle>
                <circle id="Inactive" fill-opacity="0.404891304" cx="19.5" cy="3.5" r="3.5"></circle>
                <circle id="Inactive_31" fill-opacity="0.404891304" cx="35.5" cy="3.5" r="3.5"></circle>
            </g>
            <g id="BTCCLP" fill-opacity="1" fill="#FFFFFF">
                <use filter="url(#filter-4)" xlink:href="#text-3"></use>
                <use xlink:href="#text-3"></use>
            </g>
            <g id="buy" fill-opacity="1" fill="#6CCC02">
                <use filter="url(#filter-6)" xlink:href="#text-5"></use>
                <use xlink:href="#text-5"></use>
            </g>
            <g id="_230" fill-opacity="1" fill="#6CCC02">
                <use filter="url(#filter-8)" xlink:href="#text-7"></use>
                <use xlink:href="#text-7"></use>
            </g>
            <g id="sell" fill-opacity="1" fill="#D0011B">
                <use filter="url(#filter-10)" xlink:href="#text-9"></use>
                <use xlink:href="#text-9"></use>
            </g>
            <g id="_140" fill-opacity="1" fill="#D0011B">
                <use filter="url(#filter-12)" xlink:href="#text-11"></use>
                <use xlink:href="#text-11"></use>
            </g>
            <g id="_04" fill-opacity="1" fill="#7ED321">
                <use filter="url(#filter-14)" xlink:href="#text-13"></use>
                <use xlink:href="#text-13"></use>
            </g>
            <g id="logosurbtc835bd206337a59efa79bf8875526e02d1a591151d7717a6c8e5f088d132704df" transform="translate(114.000000, 544.000000)" fill-rule="nonzero">
                <path d="M8.5519215,10 C14.0975743,10 16.9482148,13.4859279 16.9482148,19.5867314 L16.9482148,20.7848938 L11.5581902,20.7848938 L11.5581902,19.2051984 C11.5581902,16.4817636 10.521668,15.4465833 8.70727719,15.4465833 C6.8931589,15.4465833 5.85663669,16.4817636 5.85663669,19.2051984 C5.85663669,27.0486795 17,28.5195291 17,39.4132686 C17,45.5137857 14.0975743,49 8.49986372,49 C2.90269828,49 0,45.5137857 0,39.4132686 L0,37.0710802 L5.39002453,37.0710802 L5.39002453,39.7945151 C5.39002453,42.5182364 6.53066231,43.4984209 8.34450804,43.4984209 C10.1586263,43.4984209 11.298719,42.5182364 11.298719,39.7945151 C11.298719,31.9510341 0.155355683,30.4804709 0.155355683,19.5867314 C0.155355683,13.4859279 3.00626874,10 8.5519215,10" id="Fill4" fill="#2BB4B1"></path>
                <path d="M26.701281,11 L26.701281,39.9422882 C26.701281,42.621806 27.8413737,43.5868496 29.655492,43.5868496 C31.4693377,43.5868496 32.6099755,42.621806 32.6099755,39.9422882 L32.6099755,11 L38,11 L38,39.5668682 C38,45.569924 35.0975743,49 29.5001363,49 C23.9024257,49 21,45.569924 21,39.5668682 L21,11 L26.701281,11 Z" id="Fill7" fill="#2BB4B1"></path>
                <path d="M47.6664861,49 L42,49 L42,11 L50.5513362,11 C56.4242506,11 58.9485284,13.8775246 58.9485284,19.7416446 L58.9485284,22.7279544 C58.9485284,26.6373678 57.763597,29.1893935 55.2393192,30.4382814 C58.0729686,31.6871694 59,34.564694 59,38.5280717 L59,49 L53.333243,49 L53.333243,38.3653222 C53.333243,34.8359431 52.2000542,33.5328054 49.6243048,33.5328054 L47.6664861,33.5328054 L47.6664861,49 Z M47.6664861,16.4298359 L47.6664861,28.103255 L49.8819339,28.103255 C51.9941676,28.103255 53.2820423,27.1259017 53.2820423,24.085342 L53.2820423,20.3389637 C53.2820423,17.6241885 52.4062117,16.4298359 50.3971922,16.4298359 L47.6664861,16.4298359 Z" id="Fill9" fill="#2BB4B1"></path>
                <path d="M81.8820778,5.88205087 L87.2281146,8.71459002 L87.2260313,23.253203 L90,24.8533533 L90,37.0893812 L89.996961,37.0876397 L89.996961,48.5205198 L89.8099524,48.4182527 L73.3300448,58.1084538 L73.3300448,60.5542127 L73.3300448,63 L64,56.8612046 L64,10.7885401 L64,4.03445597 L70.9395415,0 L81.8855599,5.88002315 L81.8820778,5.88205087 Z M80.1341133,19.1713806 L80.1341133,14.0096 L73.8344371,10.564712 L73.8344371,15.5203859 L80.1341133,19.1713806 Z M80.1341133,31.4357765 L73.3300448,27.5367338 L73.3300448,37.1278142 L73.3300448,45.9149131 L80.0803345,43.1269427 L83.4275658,44.9279936 L80.1341133,43.1269427 L80.1341133,31.4357765 Z" id="b" fill="url(#linearGradient-15)"></path>
                <polygon id="Fill1" fill="#2BB4B1" points="91 11 109 11 109 16.4286938 102.911838 16.4286938 102.911838 49 97.0881616 49 97.0881616 16.4286938 91 16.4286938"></polygon>
                <path d="M128,34.3476801 L128,39.4134894 C128,45.5139441 125.097481,49 119.500136,49 C113.902246,49 111,45.5139441 111,39.4134894 L111,19.5865106 C111,13.4860559 113.902246,10 119.500136,10 C125.097481,10 128,13.4860559 128,19.5865106 L128,23.290266 L122.609803,23.290266 L122.609803,19.2052501 C122.609803,16.4817152 121.469401,15.4467834 119.655497,15.4467834 C117.84132,15.4467834 116.701191,16.4817152 116.701191,19.2052501 L116.701191,39.7947499 C116.701191,42.5182848 117.84132,43.4985053 119.655497,43.4985053 C121.469401,43.4985053 122.609803,42.5182848 122.609803,39.7947499 L122.609803,34.3476801 L128,34.3476801 Z" id="Fill2" fill="#2BB4B1"></path>
            </g>
        </g>
    </g>
</svg>